HIERARCHY
ROOT Hips
{
    OFFSET 0.000000 0.000000 0.000000
    CHANNELS 6 Xposition Yposition Zposition Zrotation Xrotation Yrotation
        JOINT Chest
        {
            OFFSET -0.000000 34.099812 -0.000000
            CHANNELS 3 Zrotation Xrotation Yrotation
            JOINT Neck
            {
                OFFSET -0.000000 25.785578 0.000000
                CHANNELS 3 Zrotation Xrotation Yrotation
                JOINT Head
                {
                    OFFSET -0.000000 11.061110 0.000000
                    CHANNELS 3 Zrotation Xrotation Yrotation
                    End Site
                    {
                        OFFSET -0.000000 17.094444 0.000000
                    }
                }
            }
            JOINT LeftCollar
            {
                OFFSET -0.000000 25.785578 0.000000
                CHANNELS 3 Zrotation Xrotation Yrotation
                JOINT LeftShoulder
                {
                    OFFSET 19.000000 -0.000000 0.000000
                    CHANNELS 3 Zrotation Xrotation Yrotation
                    JOINT LeftElbow
                    {
                        OFFSET 29.227484 0.000000 0.000000
                        CHANNELS 3 Zrotation Xrotation Yrotation
                        JOINT LeftWrist
                        {
                            OFFSET 22.377386 0.000000 0.000000
                            CHANNELS 3 Zrotation Xrotation Yrotation
                            End Site
                            {
                                OFFSET 0.000000 -15.083334 0.000000
                            }
                        }
                    }
                }
            }
            JOINT RightCollar
            {
                OFFSET -0.000000 25.785578 0.000000
                CHANNELS 3 Zrotation Xrotation Yrotation
                JOINT RightShoulder
                {
                    OFFSET -19.000000 0.000000 0.000000
                    CHANNELS 3 Zrotation Xrotation Yrotation
                    JOINT RightElbow
                    {
                        OFFSET -29.227484 0.000000 0.000000
                        CHANNELS 3 Zrotation Xrotation Yrotation
                        JOINT RightWrist
                        {
                            OFFSET -22.377386 0.000000 0.000000
                            CHANNELS 3 Zrotation Xrotation Yrotation
                            End Site
                            {
                                OFFSET -0.000000 -15.083334 0.000000
                            }
                        }
                    }
                }
            }
        }
    JOINT LeftHip
    {
        OFFSET 12.066666 0.000000 0.000000
        CHANNELS 3 Zrotation Xrotation Yrotation
        JOINT LeftKnee
        {
            OFFSET -0.000000 -38.619030 0.000000
            CHANNELS 3 Zrotation Xrotation Yrotation
            JOINT LeftAnkle
            {
                OFFSET -0.000000 -42.566540 0.000000
                CHANNELS 3 Zrotation Xrotation Yrotation
                End Site
                {
                    OFFSET -0.000000 -5.027778 17.094444
                }
            }
        }
    }
    JOINT RightHip
    {
        OFFSET -12.066666 0.000000 0.000000
        CHANNELS 3 Zrotation Xrotation Yrotation
        JOINT RightKnee
        {
            OFFSET -0.000000 -38.619030 0.000000
            CHANNELS 3 Zrotation Xrotation Yrotation
            JOINT RightAnkle
            {
                OFFSET -0.000000 -42.566540 0.000000
                CHANNELS 3 Zrotation Xrotation Yrotation
                End Site
                {
                    OFFSET -0.000000 -5.027778 17.094444
                }
            }
        }
    }
}
MOTION
Frames:    6
Frame Time:    0.010000
-67.500946    89.637123    -11.217172    -5.299559    -3.817433    69.593666    6.852408    8.669899    -5.422828    -8.498858    9.068197    -5.142622    14.802720    11.349337    -7.306280    -9.747654    -0.264814    3.098269    -71.741295    -9.977133    -0.950891    -47.914516    29.391777    -62.171139    137.527588    0.097066    -6.663639    29.538961    2.328608    8.938483    25.370220    45.931847    18.430315    1.738280    0.704094    40.745346    -111.813377    -9.993454    -1.994171    7.540709    -11.122294    2.155602    -13.269642    18.375526    18.564188    1.402901    -20.868473    34.803082    0.826390    -12.125936    -11.108758    5.712217    41.864697    -15.629299    2.077026    -11.718984    -11.221814    
-67.768570    89.485970    -11.198930    -5.317080    -3.536956    69.725372    6.676460    9.037108    -4.931836    -8.445199    8.885507    -5.582327    15.004230    10.730088    -7.668325    -9.772408    -0.300504    3.254189    -71.554871    -9.209082    -1.157380    -46.976532    29.248436    -62.995392    137.664398    1.071115    -7.072630    29.528463    2.371731    9.111033    25.327734    45.921120    18.484531    1.727265    0.625890    40.205669    -112.076714    -9.727933    -2.138258    7.769317    -12.122673    1.901193    -14.016874    19.270809    20.298998    0.921773    -20.753912    33.701405    1.133062    -10.955039    -11.524530    5.271322    41.541203    -15.371843    1.806633    -11.559251    -10.981720    
-68.048607    89.307693    -11.179609    -5.328920    -3.247468    69.824249    6.466493    9.482595    -4.415047    -8.405099    8.675599    -6.097044    15.236135    9.998698    -8.090319    -9.758184    -0.299681    3.369860    -71.418083    -8.705189    -1.351592    -46.206596    29.212362    -63.759743    137.658676    2.044501    -7.247961    29.502516    2.416623    9.273540    25.198454    45.973316    18.663826    1.601064    0.564823    39.733772    -112.302811    -9.364248    -2.506470    8.035230    -13.180298    1.563890    -14.911808    20.332861    21.462868    0.616518    -20.713911    33.278954    1.504542    -9.747606    -11.805263    4.672319    40.858475    -14.711962    1.510087    -11.783040    -10.823166    
-68.340286    89.103149    -11.158964    -5.344158    -2.958093    69.884537    6.237884    9.993997    -3.874685    -8.380625    8.449965    -6.689695    15.488382    9.155796    -8.574478    -9.715041    -0.277291    3.454166    -71.324471    -8.418034    -1.529129    -45.569668    29.255266    -64.533508    137.448700    2.976572    -7.268221    29.460972    2.454617    9.433228    24.969706    46.083714    18.965574    1.387964    0.465847    39.355019    -112.526741    -8.893000    -3.104701    8.348779    -14.294234    1.136908    -15.976521    21.531168    22.195244    0.486298    -20.733839    33.439369    1.935077    -8.517112    -11.873200    4.010515    39.798393    -13.736982    1.179269    -12.391763    -10.831841    
-68.642311    88.875732    -11.138393    -5.372532    -2.677175    69.905319    6.006364    10.553121    -3.315104    -8.362103    8.229897    -7.370010    15.746789    8.200997    -9.128647    -9.654594    -0.307941    3.509044    -71.252472    -8.254084    -1.633257    -44.970303    29.340578    -65.435722    136.967651    3.867923    -7.211280    29.403791    2.485162    9.591108    24.658779    46.228062    19.355318    1.116952    0.340229    39.077297    -112.665054    -8.328224    -3.897934    8.711203    -15.464477    0.621175    -17.214132    22.824417    22.658316    0.526757    -20.781380    34.053257    2.406168    -7.292196    -11.657929    3.392959    38.397930    -12.544711    0.800960    -13.345842    -11.101079    
-68.952202    88.631561    -11.120733    -5.422382    -2.411876    69.889839    5.787419    11.140783    -2.743983    -8.338873    8.034814    -8.144049    15.997682    7.138331    -9.759590    -9.602857    -0.270424    3.543400    -71.189285    -8.211615    -1.782872    -44.514465    29.476185    -66.127846    136.423721    4.689173    -6.870607    29.329605    2.512666    9.751482    24.281319    46.377037    19.801842    0.814867    0.209544    38.895252    -112.666962    -7.694324    -4.851780    9.112810    -16.689108    0.027607    -18.603632    24.164724    23.023314    0.719893    -20.815538    34.962646    2.888631    -6.112741    -11.111166    2.910772    36.741779    -11.234484    0.355266    -14.570618    -11.702640    
